<svg width="630" height="754" viewBox="0 0 630 754" fill="none" xmlns="http://www.w3.org/2000/svg">
<rect y="124" width="630" height="630" rx="315" fill="url(#paint0_linear_1_1407)" fill-opacity="0.04"/>
<g clip-path="url(#clip0_1_1407)">
<path fill-rule="evenodd" clip-rule="evenodd" d="M332.761 1257.43C330.292 1117.1 277.221 821.296 269.597 745.11C261.975 668.923 289.09 643.12 315.089 655.691C341.088 668.264 348.866 844.046 348.866 844.046C348.866 844.046 350.657 878.45 357.442 917.627C381.973 1059.26 364.755 1259.45 364.755 1259.45C364.755 1259.45 360 1272.49 345.609 1270.75C331.22 1269.02 332.761 1257.43 332.761 1257.43Z" fill="#FFC999"/>
<path fill-rule="evenodd" clip-rule="evenodd" d="M180.573 1251.31C183.042 1110.98 236.113 815.17 243.735 738.983C251.36 662.797 224.242 636.994 198.246 649.564C172.247 662.138 164.466 837.92 164.466 837.92C164.466 837.92 162.678 872.324 155.892 911.501C131.362 1053.13 148.58 1253.32 148.58 1253.32C148.58 1253.32 153.335 1266.36 167.726 1264.63C182.112 1262.89 180.573 1251.31 180.573 1251.31Z" fill="#FFC999"/>
<path fill-rule="evenodd" clip-rule="evenodd" d="M196.313 619.699L198.045 609.197C198.045 609.197 244.828 609.237 300.653 609.581C301.035 614.939 302.568 621.45 302.568 621.45C302.568 621.45 262.232 634.978 196.313 619.699Z" fill="#FF99C9"/>
<path fill-rule="evenodd" clip-rule="evenodd" d="M309.746 544.61L305.817 554.649C305.817 554.649 304.738 604.248 304.738 608.178C251.135 616.854 196.853 607.497 196.853 607.497L197.117 589.139L192.752 532.824L309.746 544.61Z" fill="white"/>
<path d="M308.933 543.856C309.109 543.407 309.615 543.186 310.064 543.361C310.463 543.517 310.682 543.935 310.603 544.341L310.559 544.492L306.684 554.389L305.121 607.261C305.107 607.943 305.1 608.422 305.1 608.686C305.1 609.106 304.8 609.467 304.387 609.544C273.466 615.281 241.825 614.964 212.719 610.983C208.568 610.416 204.8 609.811 201.46 609.203L200.362 609C199.309 608.803 198.365 608.617 197.535 608.446L195.894 608.095C195.532 608.011 195.268 607.71 195.224 607.353L195.218 607.196L196.246 588.652C196.273 588.171 196.684 587.802 197.166 587.829C197.593 587.853 197.932 588.181 197.983 588.591L197.989 588.749L197.001 606.55L197.408 606.637C198.028 606.767 198.722 606.908 199.485 607.056L200.684 607.285C204.262 607.956 208.373 608.627 212.956 609.254C241.262 613.125 271.987 613.512 302.064 608.191L303.361 607.954L303.503 602.122L304.22 577.637L304.945 554.186L305.004 553.896L308.933 543.856Z" fill="black"/>
<path fill-rule="evenodd" clip-rule="evenodd" d="M363.101 359.563C363.101 359.563 389.504 355.733 396.48 383.641C422.062 392.944 415.086 420.85 415.086 420.85C415.086 420.85 427.933 442.774 402.41 454.005C400.366 476.468 374.844 472.382 374.844 472.382C374.844 472.382 368.717 489.74 349.318 482.594C328.389 498.874 303.452 478.993 303.452 478.993C303.452 478.993 280.196 488.296 270.896 478.993C249.964 485.97 226.706 460.387 226.706 460.387C226.706 460.387 213.64 463.706 204.338 442.774C180.038 446.545 153.491 415.576 175.749 386.618C161.148 363.505 177.79 349.862 177.79 349.862C177.79 349.862 173.196 296.769 209.953 289.623C228.839 261.034 269.681 284.008 269.681 284.008C269.681 284.008 296.736 278.392 306.437 301.876C336.669 306.527 335.252 323.145 337.579 337.1C364.632 338.631 363.101 359.563 363.101 359.563Z" fill="black"/>
<path fill-rule="evenodd" clip-rule="evenodd" d="M279.211 333.638C258.01 337.358 251.569 321.318 251.569 321.318C251.569 321.318 242.823 298.727 240.583 312.596C239.391 319.968 227.996 310.186 222.757 318.045C219.231 323.332 228.047 330.148 216.59 344.246C209.952 352.413 236.132 358.933 219.981 373.988C219.981 373.988 231.465 392.365 211.738 398.36L207.376 419.757L252.838 419.687L251.375 395.047C282.006 395.047 283.501 352.946 279.211 333.638Z" fill="#FFC999"/>
<path d="M240.13 356.048C240.661 355.517 241.522 355.517 242.052 356.048L242.33 356.303C242.457 356.413 242.619 356.547 242.813 356.701C243.477 357.226 244.258 357.754 245.145 358.247C248.153 359.92 251.586 360.786 255.365 360.42C256.112 360.347 256.777 360.894 256.849 361.641C256.922 362.389 256.374 363.053 255.627 363.126C251.255 363.55 247.285 362.549 243.824 360.623C242.068 359.647 240.82 358.661 240.13 357.971C239.599 357.44 239.599 356.579 240.13 356.048Z" fill="#F5222D"/>
<path d="M256.856 334.796C257.393 334.835 257.811 335.259 257.858 335.778L257.86 335.967C257.834 336.685 257.975 337.89 258.449 339.528C259.212 342.166 260.637 345.128 262.893 348.36C263.248 348.868 263.105 349.57 262.58 349.899L261.173 350.773C259.351 351.893 257.744 352.834 256.348 353.609L255.834 353.893C255.444 354.106 255.089 354.296 254.767 354.465L253.668 355.02C253.641 355.033 253.617 355.044 253.597 355.053C253.053 355.304 252.409 355.067 252.159 354.523C251.908 353.98 252.145 353.336 252.688 353.085L253.192 352.838L254.085 352.374C254.306 352.256 254.543 352.129 254.794 351.991C256.089 351.283 257.589 350.416 259.297 349.379L260.474 348.655L260.205 348.244C258.474 345.558 257.281 343.035 256.542 340.708L256.367 340.13C255.877 338.437 255.693 337.098 255.689 336.158L255.698 335.8C255.74 335.203 256.259 334.754 256.856 334.796Z" fill="#DD936F"/>
<path fill-rule="evenodd" clip-rule="evenodd" d="M261.217 589.288C261.217 589.288 319.326 604.698 345.833 586.224C374.645 566.145 339.362 489.737 330.135 469.83C322.214 452.736 304.945 441.661 289.228 439.041C273.764 436.465 261.946 435.548 261.946 435.548L258.55 422.31C258.055 420.382 256.317 419.032 254.327 419.032H207.999C205.828 419.032 203.991 420.629 203.682 422.775L201.893 435.314C201.893 435.314 162.896 433.851 144.439 450.942C126.761 467.313 131.868 504.053 146.698 538.062C161.525 572.072 174.015 599.061 198.809 601.541C244.645 606.124 316.295 566.217 316.295 566.217C316.295 566.217 328.516 559.671 339.868 561.417C337.248 545.7 328.516 534.35 303.197 540.899L212.834 559.671" fill="white"/>
<path fill-rule="evenodd" clip-rule="evenodd" d="M316.73 513.615C316.73 513.615 321.097 528.02 312.039 539.698L313.021 554.758L248.848 589.466C248.848 589.466 318.69 605.568 346.599 589.288C367.531 577.078 361.514 542.349 345.45 507.351C345.45 507.351 332.815 503.524 316.73 513.615Z" fill="#FFC999"/>
<path fill-rule="evenodd" clip-rule="evenodd" d="M191.006 517.544L208.904 556.396L280.489 536.962C301.881 531.285 324.588 539.372 330.263 556.396C319.787 557.706 299.923 562.289 299.923 562.289C299.923 562.289 231.17 605.18 196.462 603.545C171.572 602.37 161.887 573.38 147.057 539.372C147.057 539.372 156.083 520.164 191.006 517.544Z" fill="#FFC999"/>
<path d="M307.563 476.072C308.045 476.072 308.436 476.463 308.436 476.945L308.422 478.161L308.395 479.366C308.378 479.993 308.355 480.655 308.326 481.347C308.212 484.094 308.022 486.841 307.739 489.464L307.605 490.604L308.012 491.024C310.759 493.932 312.95 497.022 314.618 500.273L315.025 501.089C319.947 511.29 319.625 522.158 316.139 532.415C315.579 534.06 314.98 535.546 314.379 536.848L314.074 537.494L313.564 538.49C313.328 538.91 312.796 539.06 312.375 538.824C311.955 538.588 311.806 538.056 312.041 537.636L312.291 537.163C312.428 536.893 312.598 536.543 312.794 536.118C313.37 534.869 313.947 533.439 314.486 531.854C317.838 521.991 318.147 511.576 313.453 501.847C311.692 498.198 309.25 494.747 306.071 491.527C305.883 491.337 305.793 491.071 305.826 490.806C306.204 487.777 306.447 484.526 306.583 481.274L306.65 479.318L306.689 477.221L306.691 476.945C306.691 476.463 307.081 476.072 307.563 476.072Z" fill="black"/>
<path d="M243.316 435.095C243.798 435.095 244.189 435.486 244.189 435.968C244.189 436.396 243.88 436.753 243.473 436.826L243.316 436.841H201.6C201.118 436.841 200.728 436.45 200.728 435.968C200.728 435.539 201.036 435.183 201.443 435.109L201.6 435.095H243.316Z" fill="black"/>
<path d="M262.922 435.22C263.062 434.675 263.618 434.347 264.163 434.487C264.654 434.613 264.969 435.076 264.924 435.564L264.896 435.728L251.145 489.205C250.959 489.929 250.099 490.196 249.537 489.76L249.413 489.647L199.43 436.17C199.045 435.759 199.067 435.114 199.478 434.729C199.844 434.388 200.394 434.367 200.782 434.655L200.919 434.778L249.632 486.898L262.922 435.22Z" fill="black"/>
<path fill-rule="evenodd" clip-rule="evenodd" d="M264.632 494.906C269.258 502.708 267.171 512.492 259.977 516.76C252.777 521.029 243.192 518.162 238.566 510.362C233.94 502.56 236.024 492.776 243.221 488.508C250.421 484.24 260.003 487.104 264.632 494.906Z" fill="#464646"/>
<path fill-rule="evenodd" clip-rule="evenodd" d="M266.292 494.868C270.92 502.67 268.833 512.454 261.636 516.72C254.439 520.988 244.854 518.123 240.228 510.321C235.603 502.519 237.687 492.738 244.884 488.47C252.081 484.201 261.666 487.066 266.292 494.868Z" fill="black"/>
<path fill-rule="evenodd" clip-rule="evenodd" d="M263.356 496.227C266.946 502.283 265.327 509.881 259.738 513.195C254.152 516.508 246.711 514.284 243.12 508.227C239.527 502.168 241.143 494.573 246.732 491.259C252.321 487.943 259.762 490.17 263.356 496.227Z" fill="#FF99C9"/>
<path d="M230.896 389.934C231.182 389.408 231.84 389.213 232.366 389.499C238.295 392.725 244.438 394.345 250.603 394.429C251.202 394.437 251.68 394.929 251.672 395.528C251.664 396.126 251.172 396.605 250.574 396.597C244.055 396.508 237.567 394.796 231.33 391.404C230.805 391.118 230.61 390.459 230.896 389.934Z" fill="#DD936F"/>
<path fill-rule="evenodd" clip-rule="evenodd" d="M240.414 547.681C240.414 547.681 214.275 525.781 198.211 526.929C182.929 528.021 173.764 540.463 176.381 547.447C176.381 547.447 172.892 553.56 178.564 555.524C177.801 559.999 184.239 559.671 184.239 559.671C184.239 559.671 183.15 562.508 187.733 563.162C192.316 563.818 197.377 554.429 209.275 556.36L240.414 547.681Z" fill="#FFC999"/>
<path d="M197.556 525.275C190.398 525.786 182.717 530.885 177.198 537.697C174.882 540.555 173.286 543.371 172.837 545.433L172.783 545.71C172.49 547.437 173.082 548.673 174.351 549.078L174.431 549.099L174.332 549.329C173.974 550.206 173.801 551.096 173.892 551.981L173.935 552.293C174.171 553.627 175.029 554.725 176.512 555.495L176.843 555.655L176.842 555.729C176.857 557.861 178.294 559.213 180.51 559.821L180.979 559.937C181.447 560.04 181.913 560.107 182.358 560.146L182.481 560.153L182.49 560.241C182.541 560.644 182.672 561.052 182.903 561.452C183.57 562.604 184.926 563.364 187.005 563.661C188.163 563.827 189.309 563.535 190.667 562.832L191.082 562.609C191.925 562.137 195.142 560.013 195.18 559.989C199.669 557.154 203.47 556.035 208.527 556.856C208.675 556.88 208.827 556.873 208.972 556.836L241.31 548.48C242.171 548.257 242.412 547.15 241.722 546.589L240.557 545.668L239.372 544.756C238.749 544.282 238.08 543.781 237.369 543.258C233.987 540.767 230.35 538.276 226.597 535.95C222.264 533.265 218.055 530.975 214.067 529.201C207.963 526.485 202.602 525.074 198.157 525.242L197.556 525.275ZM213.186 531.181C217.075 532.912 221.201 535.156 225.455 537.793C229.155 540.086 232.745 542.545 236.084 545.003L237.642 546.165L238.644 546.928L208.643 554.681L208.874 554.717C203.436 553.834 199.252 554.97 194.585 557.807L194.023 558.156C193.922 558.22 190.785 560.291 190.024 560.717C188.856 561.37 188.02 561.616 187.312 561.515C185.838 561.305 185.075 560.877 184.779 560.366C184.657 560.155 184.619 559.923 184.64 559.699L184.677 559.486C184.937 558.806 184.469 558.086 183.762 558.019L183.561 558.016C182.846 558.036 181.935 557.964 181.084 557.731C179.509 557.299 178.82 556.54 179.061 555.133C179.15 554.61 178.849 554.099 178.347 553.926C176.786 553.385 176.14 552.66 176.048 551.76C175.983 551.121 176.193 550.364 176.6 549.592C176.822 549.171 177.043 548.849 177.174 548.686C177.825 547.879 177.08 546.706 176.072 546.953L175.682 547.04C174.813 547.203 174.724 546.954 174.955 545.894C175.319 544.223 176.76 541.681 178.883 539.061C184.059 532.672 191.25 527.899 197.711 527.437C201.847 527.141 207.1 528.474 213.186 531.181Z" fill="#DD936F"/>
<path d="M197.422 532.838C198.016 532.764 198.557 533.185 198.631 533.779C198.706 534.373 198.284 534.915 197.69 534.989C193.568 535.505 189.101 537.857 184.606 541.469C182.785 542.932 181.085 544.502 179.556 546.071L178.8 546.863L177.884 547.87C177.776 547.993 177.697 548.085 177.648 548.144C177.263 548.602 176.579 548.662 176.121 548.277C175.662 547.893 175.603 547.209 175.987 546.75L176.524 546.137C176.953 545.66 177.447 545.129 178.004 544.558C179.591 542.93 181.353 541.301 183.248 539.779C188.028 535.938 192.823 533.413 197.422 532.838Z" fill="#DD936F"/>
<path d="M204.631 538.69C205.229 538.671 205.73 539.139 205.75 539.738C205.77 540.336 205.301 540.837 204.703 540.857C204.341 540.869 203.975 540.893 203.607 540.927C198.491 541.412 192.93 544.033 187.316 548.112C185.103 549.719 183.036 551.443 181.175 553.166C180.686 553.618 180.239 554.046 179.836 554.442L178.92 555.367C178.892 555.397 178.868 555.423 178.848 555.445C178.439 555.882 177.754 555.907 177.316 555.498C176.878 555.09 176.854 554.404 177.262 553.967L177.911 553.299L178.749 552.476C179.047 552.188 179.366 551.887 179.702 551.575C181.623 549.797 183.755 548.019 186.042 546.358C191.942 542.072 197.828 539.297 203.402 538.769C203.815 538.73 204.224 538.704 204.631 538.69Z" fill="#DD936F"/>
<path d="M204.597 545.582C205.195 545.544 205.71 545.998 205.748 546.595C205.786 547.192 205.332 547.707 204.735 547.745C202.885 547.863 200.586 548.658 197.96 550.033C196.109 551.002 194.143 552.234 192.112 553.667C190.237 554.991 188.41 556.411 186.707 557.832L185.859 558.549L184.531 559.715C184.09 560.12 183.405 560.091 183 559.65C182.595 559.209 182.625 558.523 183.066 558.118L183.673 557.576L184.448 556.903C184.723 556.668 185.013 556.422 185.319 556.167C187.063 554.712 188.935 553.256 190.862 551.896C192.966 550.412 195.01 549.131 196.954 548.113C199.826 546.609 202.39 545.722 204.597 545.582Z" fill="#DD936F"/>
<path d="M180.633 489.177C181.036 489.034 181.475 489.205 181.682 489.564L181.747 489.707L191.392 516.814C191.588 517.366 191.196 517.95 190.611 517.978L190.109 518.01C189.69 518.04 189.204 518.082 188.655 518.136C187.082 518.292 185.327 518.522 183.437 518.84C178.038 519.747 172.641 521.174 167.613 523.229C158.415 526.988 151.522 532.41 147.837 539.761C147.621 540.192 147.097 540.366 146.666 540.15C146.235 539.934 146.061 539.41 146.277 538.979C150.177 531.198 157.398 525.518 166.952 521.613C172.112 519.504 177.631 518.046 183.148 517.119C184.756 516.848 186.27 516.64 187.662 516.486L188.894 516.36L189.363 516.317L180.103 490.292C179.959 489.889 180.131 489.449 180.49 489.243L180.633 489.177Z" fill="black"/>
<path d="M324.816 508.767C331.539 505.864 338.678 504.679 345.728 506.215C346.199 506.318 346.497 506.783 346.395 507.254C346.292 507.725 345.827 508.023 345.356 507.921C338.711 506.472 331.924 507.599 325.508 510.37C324.208 510.931 323.011 511.525 321.932 512.125L321.298 512.485C320.561 512.914 320.049 513.244 319.79 513.427C319.396 513.704 318.851 513.609 318.574 513.215C318.296 512.821 318.391 512.277 318.785 511.999L319.22 511.71C319.564 511.487 319.965 511.241 320.421 510.976C321.717 510.222 323.19 509.47 324.816 508.767Z" fill="black"/>
<path d="M311.639 537.815C311.875 537.265 312.512 537.01 313.062 537.246C316.91 538.895 320.456 541.54 323.685 544.904C325.657 546.958 327.391 549.156 328.876 551.355C329.266 551.932 329.618 552.48 329.932 552.989L330.475 553.902C330.58 554.083 330.657 554.223 330.707 554.318C331.024 554.912 330.727 555.633 330.115 555.849L329.956 555.892L310.196 559.692L244.971 592.43C244.489 592.671 243.914 592.52 243.608 592.098L243.516 591.947C243.274 591.466 243.425 590.89 243.848 590.584L243.999 590.492L309.358 557.689L309.639 557.593L328.04 554.053L327.774 553.627C327.667 553.458 327.555 553.285 327.439 553.109L327.08 552.568C325.66 550.466 324.001 548.364 322.121 546.405C319.079 543.236 315.761 540.761 312.209 539.238C311.658 539.003 311.403 538.365 311.639 537.815Z" fill="#DD936F"/>
<path d="M197.078 619.172C197.256 618.638 197.834 618.35 198.368 618.529L199.464 618.875L200.428 619.164C201.106 619.363 201.854 619.576 202.669 619.8C206.166 620.759 210.17 621.719 214.615 622.616C242.813 628.302 272.83 628.73 301.136 620.472C301.676 620.314 302.242 620.625 302.4 621.165C302.558 621.705 302.247 622.271 301.707 622.429C273.04 630.793 242.706 630.36 214.212 624.614C209.72 623.708 205.671 622.737 202.129 621.766L200.939 621.433C200.369 621.272 199.838 621.116 199.346 620.969L197.983 620.547C197.875 620.513 197.788 620.484 197.721 620.462C197.187 620.283 196.899 619.706 197.078 619.172Z" fill="#253368"/>
<path d="M242.62 334.655C243.342 334.655 243.928 335.24 243.928 335.963C243.928 340.99 240.143 345.108 235.415 345.108C230.689 345.108 226.907 340.99 226.907 335.963C226.907 335.24 227.493 334.655 228.215 334.655C228.938 334.655 229.524 335.24 229.524 335.963C229.524 339.592 232.187 342.492 235.415 342.492C238.646 342.492 241.311 339.592 241.311 335.963C241.311 335.24 241.897 334.655 242.62 334.655Z" fill="#253368"/>
<path d="M275.626 335.554C276.312 335.554 276.867 336.11 276.867 336.795C276.867 341.762 273.467 345.874 269.145 345.874C264.822 345.874 261.422 341.762 261.422 336.795C261.422 336.11 261.978 335.554 262.663 335.554C263.349 335.554 263.904 336.11 263.904 336.795C263.904 340.484 266.308 343.391 269.145 343.391C271.981 343.391 274.385 340.484 274.385 336.795C274.385 336.11 274.941 335.554 275.626 335.554Z" fill="#253368"/>
<path d="M227.838 320.564C232.832 318.456 238.12 318.668 243.119 320.273C244.555 320.735 245.628 321.201 246.243 321.525C246.882 321.863 247.127 322.654 246.79 323.293C246.452 323.932 245.661 324.177 245.022 323.84L244.693 323.68C244.592 323.633 244.471 323.579 244.333 323.519C243.744 323.263 243.068 323.005 242.318 322.765C237.863 321.334 233.187 321.147 228.855 322.975C228.065 323.309 227.294 323.708 226.545 324.177C225.932 324.56 225.125 324.373 224.742 323.761C224.359 323.148 224.545 322.341 225.158 321.958C226.025 321.415 226.92 320.952 227.838 320.564Z" fill="#253368"/>
<path fill-rule="evenodd" clip-rule="evenodd" d="M298.358 619.153C321.328 620.683 377.487 765.09 398.672 816.714C396.049 827.192 379.528 845.814 379.528 845.814C379.528 845.814 381.413 854.108 382.573 859.092C363.176 875.428 325.4 884.618 325.4 884.618V891.764C265.159 920.352 183.749 894.566 183.749 894.566C183.749 894.566 182.216 893.036 183.238 887.42C155.736 887.42 96.4551 853.216 96.4551 853.216L104.623 835.861L80.1194 811.354C80.1194 811.354 154.999 683.296 167.755 655.143C181.964 623.786 197.662 617.964 197.662 617.964C197.662 617.964 257.596 616.433 298.358 619.153Z" fill="#FF99C9"/>
<path d="M169.045 699.627C169.287 699.119 169.895 698.904 170.404 699.146C170.861 699.364 171.081 699.878 170.944 700.349L170.885 700.504L98.7551 851.873L99.6623 852.524L100.432 853.062C102.374 854.409 104.662 855.91 107.282 857.529C114.777 862.156 123.422 866.786 133.098 871.107C148.633 878.045 165.312 883.506 182.921 886.932C183.474 887.039 183.835 887.574 183.727 888.127C183.62 888.679 183.084 889.04 182.532 888.933C164.763 885.476 147.937 879.967 132.267 872.969C122.504 868.609 113.78 863.937 106.211 859.263C103.854 857.808 101.76 856.444 99.9399 855.199L99.2701 854.738C98.8552 854.45 98.4736 854.182 98.1256 853.933L97.1557 853.23C97.0198 853.129 96.9194 853.054 96.855 853.005C96.5197 852.749 96.3815 852.318 96.4911 851.923L96.5534 851.756L169.045 699.627Z" fill="black"/>
<path d="M315.596 686.355C316.068 686.17 316.594 686.361 316.844 686.784L316.917 686.933L384.546 859.741C384.72 860.185 384.562 860.691 384.166 860.958L383.691 861.27C383.306 861.521 382.851 861.811 382.33 862.137L380.997 862.96C379.838 863.667 378.558 864.423 377.166 865.219C371.601 868.403 365.368 871.586 358.615 874.557C347.901 879.27 336.901 882.995 325.869 885.36C325.319 885.478 324.777 885.127 324.659 884.577C324.541 884.026 324.891 883.484 325.442 883.366C336.328 881.033 347.199 877.352 357.794 872.691C364.479 869.751 370.648 866.6 376.154 863.45C378.079 862.348 379.784 861.326 381.248 860.409L382.345 859.711L315.019 687.676C314.834 687.204 315.025 686.678 315.447 686.428L315.596 686.355Z" fill="black"/>
<path d="M277.47 646.488C278.021 646.373 278.562 646.726 278.677 647.277L282.357 664.992C283.666 671.324 285.059 678.102 286.525 685.263L287.862 691.811C294.221 722.981 300.58 754.777 306.577 785.622L308.069 793.313C309.171 799.008 310.251 804.624 311.308 810.157L313.598 822.193C318.537 848.293 322.846 871.944 326.403 892.613C326.487 893.102 326.206 893.581 325.738 893.747C322.325 894.951 318.862 896.057 315.353 897.065C278.789 907.569 239.799 907.233 203.086 900.364C197.457 899.311 192.382 898.182 187.944 897.053L186.452 896.667C185.976 896.541 185.522 896.419 185.089 896.301L183.311 895.802C182.901 895.684 182.605 895.595 182.426 895.54C181.982 895.402 181.695 894.985 181.708 894.535L181.729 894.364L216.972 719.797C217.083 719.245 217.621 718.888 218.173 719C218.669 719.1 219.008 719.546 218.99 720.036L218.97 720.201L183.912 893.853L185.628 894.335C186.481 894.568 187.422 894.816 188.446 895.077C192.844 896.196 197.876 897.315 203.461 898.36C239.889 905.175 278.576 905.509 314.79 895.106C317.567 894.308 320.313 893.449 323.029 892.527L324.246 892.105L322.932 884.538C319.554 865.24 315.58 843.582 311.099 819.954L310.094 814.671C308.788 807.811 307.444 800.817 306.067 793.7C300.628 765.587 294.86 736.563 289.042 707.845L283.229 679.333L276.682 647.695C276.566 647.144 276.919 646.604 277.47 646.488Z" fill="black"/>
<path d="M248.365 649.788C248.871 649.817 249.271 650.208 249.325 650.696L249.329 650.862L240.414 819.065C240.384 819.627 239.904 820.059 239.342 820.031C238.836 820.002 238.436 819.611 238.382 819.123L238.378 818.957L247.293 650.754C247.323 650.192 247.803 649.76 248.365 649.788Z" fill="black"/>
<path d="M218.515 624.194C218.691 623.659 219.267 623.368 219.802 623.543C220.283 623.701 220.567 624.184 220.491 624.669L220.452 624.83L186.762 727.44C186.586 727.975 186.01 728.267 185.475 728.091C184.994 727.933 184.71 727.451 184.786 726.966L184.825 726.804L218.515 624.194Z" fill="black"/>
</g>
<defs>
<linearGradient id="paint0_linear_1_1407" x1="126" y1="182" x2="524" y2="732" gradientUnits="userSpaceOnUse">
<stop stop-color="white"/>
</linearGradient>
<clipPath id="clip0_1_1407">
<path d="M0 -66H630V439C630 612.97 488.97 754 315 754V754C141.03 754 0 612.97 0 439V-66Z" fill="white"/>
</clipPath>
</defs>
</svg>
