<svg width="1280" height="575" viewBox="0 0 1280 575" fill="none" xmlns="http://www.w3.org/2000/svg">
<path d="M1280 574.879C1028 574.879 1002.46 574.879 649 574.879C295.538 574.879 359 574.879 0 574.879C0 257.382 286.538 0 640 0C993.462 0 1280 257.382 1280 574.879Z" fill="black" fill-opacity="0.2"/>
<path d="M2.09869 574.379H0.500237C0.800897 257.437 286.948 0.5 640 0.5C993.052 0.5 1279.2 257.437 1279.5 574.379H1278.53H1277.06H1275.59H1274.14H1272.68H1271.23H1269.79H1268.35H1266.92H1265.49H1264.07H1262.65H1261.23H1259.82H1258.42H1257.02H1255.63H1254.24H1252.85H1251.47H1250.1H1248.73H1247.36H1246H1244.64H1243.29H1241.94H1240.6H1239.26H1237.92H1236.59H1235.27H1233.95H1232.63H1231.32H1230.01H1228.71H1227.41H1226.11H1224.82H1223.53H1222.25H1220.97H1219.7H1218.43H1217.16H1215.9H1214.64H1213.39H1212.13H1210.89H1209.65H1208.41H1207.17H1205.94H1204.71H1203.49H1202.27H1201.06H1199.84H1198.64H1197.43H1196.23H1195.03H1193.84H1192.65H1191.46H1190.28H1189.1H1187.92H1186.75H1185.58H1184.42H1183.25H1182.09H1180.94H1179.78H1178.64H1177.49H1176.35H1175.21H1174.07H1172.94H1171.81H1170.68H1169.56H1168.44H1167.32H1166.2H1165.09H1163.98H1162.88H1161.77H1160.67H1159.57H1158.48H1157.39H1156.3H1155.21H1154.13H1153.05H1151.97H1150.9H1149.82H1148.75H1147.68H1146.62H1145.56H1144.5H1143.44H1142.38H1141.33H1140.28H1139.23H1138.19H1137.14H1136.1H1135.07H1134.03H1132.99H1131.96H1130.93H1129.91H1128.88H1127.86H1126.84H1125.82H1124.8H1123.78H1122.77H1121.76H1120.75H1119.74H1118.74H1117.73H1116.73H1115.73H1114.73H1113.74H1112.74H1111.75H1110.76H1109.77H1108.78H1107.8H1106.81H1105.83H1104.85H1103.87H1102.89H1101.91H1100.93H1099.96H1098.99H1098.02H1097.05H1096.08H1095.11H1094.14H1093.18H1092.21H1091.25H1090.29H1089.33H1088.37H1087.41H1086.46H1085.5H1084.54H1083.59H1082.64H1081.68H1080.73H1079.78H1078.83H1077.89H1076.94H1075.99H1075.04H1074.1H1073.15H1072.21H1071.27H1070.32H1069.38H1068.44H1067.5H1066.56H1065.62H1064.68H1063.74H1062.8H1061.87H1060.93H1059.99H1059.05H1058.12H1057.18H1056.25H1055.31H1054.37H1053.44H1052.5H1051.57H1050.63H1049.7H1048.76H1047.83H1046.9H1045.96H1045.03H1044.09H1043.16H1042.22H1041.29H1040.35H1039.42H1038.48H1037.55H1036.61H1035.67H1034.74H1033.8H1032.86H1031.93H1030.99H1030.05H1029.11H1028.17H1027.23H1026.29H1025.35H1024.41H1023.47H1022.53H1021.58H1020.64H1019.7H1018.75H1017.8H1016.86H1015.91H1014.96H1014.01H1013.06H1012.11H1011.16H1010.21H1009.25H1008.3H1007.34H1006.39H1005.43H1004.47H1003.51H1002.55H1001.59H1000.62H999.658H998.692H997.725H996.756H995.786H994.815H993.843H992.869H991.894H990.917H989.939H988.959H987.978H986.995H986.011H985.025H984.038H983.049H982.058H981.065H980.071H979.075H978.078H977.078H976.077H975.074H974.069H973.063H972.054H971.043H970.031H969.016H968H966.981H965.961H964.938H963.913H962.886H961.857H960.826H959.792H958.757H957.719H956.678H955.636H954.591H953.544H952.494H951.442H950.388H949.331H948.272H947.21H946.146H945.079H944.009H942.937H941.863H940.785H939.705H938.623H937.537H936.449H935.358H934.264H933.168H932.068H930.966H929.861H928.753H927.642H926.528H925.411H924.291H923.168H922.041H920.912H919.78H918.644H917.506H916.364H915.219H914.07H912.919H911.764H910.606H909.444H908.279H907.111H905.939H904.764H903.586H902.403H901.218H900.029H898.836H897.64H896.44H895.236H894.029H892.818H891.603H890.385H889.163H887.937H886.707H885.473H884.236H882.995H881.749H880.5H879.247H877.99H876.729H875.464H874.194H872.921H871.644H870.362H869.076H867.786H866.492H865.194H863.891H862.584H861.273H859.958H858.638H857.313H855.985H854.652H853.314H851.972H850.625H849.274H847.919H846.558H845.193H843.824H842.45H841.071H839.688H838.299H836.906H835.509H834.106H832.699H831.286H829.869H828.447H827.02H825.588H824.151H822.709H821.262H819.81H818.353H816.891H815.424H813.951H812.474H810.991H809.503H808.01H806.511H805.007H803.498H801.983H800.463H798.938H797.407H795.871H794.33H792.782H791.23H789.671H788.108H786.538H784.963H783.383H781.796H780.204H778.606H777.003H775.393H773.778H772.158H770.531H768.898H767.26H765.615H763.965H762.309H760.646H758.978H757.303H755.623H753.936H752.244H750.545H748.84H747.129H745.411H743.688H741.958H740.222H738.479H736.73H734.975H733.213H731.445H729.671H727.89H726.103H724.309H722.508H720.701H718.888H717.067H715.24H713.407H711.567H709.72H707.866H706.006H704.138H702.264H700.383H698.496H696.601H694.7H692.791H690.876H688.953H687.024H685.087H683.144H681.193H679.236H677.271H675.299H673.32H671.333H669.34H667.339H665.331H663.315H661.292H659.262H657.224H655.18H653.127H651.067H649H646.934H644.877H642.83H640.792H638.763H636.744H634.734H632.734H630.742H628.76H626.787H624.823H622.869H620.923H618.986H617.059H615.14H613.23H611.329H609.437H607.554H605.679H603.813H601.956H600.108H598.268H596.436H594.614H592.799H590.993H589.196H587.407H585.626H583.854H582.089H580.333H578.586H576.846H575.115H573.391H571.676H569.968H568.269H566.578H564.894H563.218H561.55H559.89H558.238H556.593H554.956H553.327H551.705H550.091H548.484H546.885H545.293H543.709H542.132H540.562H538.999H537.444H535.896H534.356H532.822H531.295H529.776H528.264H526.758H525.26H523.768H522.283H520.806H519.334H517.87H516.413H514.962H513.518H512.08H510.649H509.225H507.807H506.395H504.99H503.591H502.199H500.813H499.433H498.06H496.693H495.331H493.976H492.627H491.285H489.948H488.617H487.292H485.973H484.66H483.353H482.051H480.755H479.465H478.181H476.902H475.629H474.361H473.099H471.843H470.592H469.346H468.106H466.871H465.641H464.417H463.197H461.983H460.775H459.571H458.372H457.179H455.99H454.806H453.628H452.454H451.285H450.121H448.961H447.807H446.657H445.511H444.371H443.235H442.103H440.976H439.854H438.736H437.622H436.513H435.408H434.307H433.211H432.118H431.03H429.946H428.867H427.791H426.719H425.651H424.588H423.528H422.472H421.42H420.371H419.327H418.286H417.249H416.215H415.185H414.159H413.136H412.117H411.101H410.089H409.08H408.074H407.072H406.073H405.077H404.084H403.095H402.108H401.125H400.145H399.168H398.194H397.222H396.254H395.288H394.326H393.366H392.409H391.454H390.503H389.553H388.607H387.663H386.722H385.783H384.846H383.912H382.98H382.051H381.124H380.199H379.277H378.356H377.438H376.522H375.608H374.696H373.786H372.878H371.972H371.068H370.165H369.265H368.366H367.469H366.574H365.68H364.788H363.897H363.008H362.121H361.235H360.351H359.467H358.586H357.705H356.826H355.948H355.072H354.196H353.322H352.449H351.576H350.705H349.835H348.966H348.098H347.23H346.364H345.498H344.633H343.768H342.905H342.042H341.179H340.318H339.456H338.596H337.735H336.876H336.016H335.157H334.298H333.44H332.581H331.723H330.865H330.007H329.15H328.292H327.434H326.577H325.719H324.861H324.003H323.145H322.286H321.428H320.569H319.71H318.85H317.99H317.13H316.269H315.407H314.545H313.683H312.819H311.956H311.091H310.226H309.36H308.493H307.625H306.756H305.887H305.016H304.145H303.272H302.398H301.524H300.648H299.771H298.892H298.013H297.132H296.249H295.366H294.481H293.594H292.706H291.817H290.926H290.033H289.139H288.243H287.345H286.446H285.544H284.641H283.736H282.83H281.921H281.01H280.097H279.183H278.266H277.347H276.425H275.502H274.576H273.648H272.718H271.786H270.851H269.913H268.973H268.031H267.086H266.139H265.189H264.236H263.28H262.322H261.361H260.398H259.431H258.461H257.489H256.514H255.535H254.554H253.57H252.582H251.592H250.598H249.601H248.6H247.597H246.59H245.58H244.566H243.549H242.528H241.504H240.476H239.445H238.41H237.372H236.329H235.284H234.234H233.18H232.123H231.061H229.996H228.927H227.854H226.776H225.695H224.61H223.52H222.426H221.328H220.226H219.119H218.008H216.893H215.773H214.649H213.52H212.387H211.249H210.107H208.96H207.808H206.652H205.491H204.325H203.154H201.978H200.798H199.612H198.422H197.226H196.025H194.82H193.609H192.393H191.172H189.946H188.714H187.477H186.235H184.987H183.734H182.475H181.211H179.941H178.666H177.385H176.099H174.806H173.508H172.205H170.895H169.58H168.259H166.931H165.598H164.259H162.914H161.563H160.205H158.842H157.472H156.097H154.714H153.326H151.931H150.53H149.123H147.709H146.288H144.861H143.428H141.988H140.541H139.088H137.628H136.161H134.687H133.207H131.72H130.225H128.724H127.216H125.701H124.179H122.65H121.114H119.57H118.019H116.462H114.896H113.324H111.744H110.157H108.562H106.96H105.351H103.734H102.109H100.477H98.8367H97.1891H95.5338H93.8708H92.1999H90.5212H88.8347H87.1402H85.4378H83.7274H82.009H80.2826H78.548H76.8054H75.0545H73.2955H71.5282H69.7526H67.9687H66.1764H64.3758H62.5667H60.7492H58.9231H57.0885H55.2453H53.3935H51.5331H49.6639H47.786H45.8994H44.0039H42.0996H40.1865H38.2644H36.3333H34.3933H32.4442H30.486H28.5188H26.5424H24.5568H22.562H20.5579H18.5446H16.5219H14.4899H12.4484H10.3975H8.33711H6.2672H4.18774H2.09869Z" stroke="url(#paint0_linear_1_179)" stroke-opacity="0.2"/>
<defs>
<linearGradient id="paint0_linear_1_179" x1="-1.27128e-05" y1="30.2569" x2="1423.02" y2="301.004" gradientUnits="userSpaceOnUse">
<stop stop-color="#313E2A"/>
<stop offset="1" stop-color="#262D20" stop-opacity="0.74"/>
</linearGradient>
</defs>
</svg>
