<svg width="20" height="22" viewBox="0 0 20 22" fill="none" xmlns="http://www.w3.org/2000/svg">
<path d="M13 21V17C13.1391 15.7473 12.7799 14.4901 12 13.5C15 13.5 18 11.5 18 8C18.08 6.75 17.73 5.52 17 4.5C17.28 3.35 17.28 2.15 17 1C17 1 16 1 14 2.5C11.36 2 8.64001 2 6.00001 2.5C4.00001 1 3.00001 1 3.00001 1C2.70001 2.15 2.70001 3.35 3.00001 4.5C2.27188 5.51588 1.91848 6.75279 2.00001 8C2.00001 11.5 5.00001 13.5 8.00001 13.5C7.61001 13.99 7.32001 14.55 7.15001 15.15C6.98001 15.75 6.93001 16.38 7.00001 17V21" stroke="#4B5563" stroke-width="2" stroke-linecap="round" stroke-linejoin="round"/>
</svg>
