<svg width="20" height="20" viewBox="0 0 20 20" fill="none" xmlns="http://www.w3.org/2000/svg">
<path d="M0 20L1.41152 14.8691C0.544223 13.3639 0.0887624 11.6568 0.0909896 9.91964C0.0809453 4.44549 4.52644 0 9.98995 0C12.6417 0 15.1315 1.02806 17.0062 2.9034C17.9303 3.82266 18.6627 4.91616 19.1611 6.12054C19.6595 7.32492 19.9139 8.61623 19.9096 9.91964C19.9096 15.3832 15.4641 19.8287 10 19.8287C8.33678 19.8287 6.71374 19.4151 5.26204 18.6192L0 20ZM5.49424 16.8349L5.79675 17.0162C7.06649 17.7676 8.51458 18.1644 9.98995 18.1654C14.5264 18.1654 18.2263 14.4662 18.2263 9.9291C18.2263 7.73176 17.3696 5.65554 15.8168 4.1034C15.0533 3.33553 14.1453 2.72636 13.1453 2.31101C12.1452 1.89565 11.0728 1.68232 9.98995 1.68331C5.44343 1.6839 1.74476 5.38316 1.74476 9.92023C1.74476 11.4724 2.17843 12.995 3.00502 14.3055L3.19645 14.618L2.35982 17.662L5.49483 16.8354L5.49424 16.8349Z" fill="#4B5563"/>
<path fill-rule="evenodd" clip-rule="evenodd" d="M7.52024 5.76662C7.33885 5.35303 7.13737 5.34298 6.96603 5.34298C6.81477 5.33294 6.65288 5.33294 6.48154 5.33294C6.32083 5.33294 6.04845 5.3932 5.81684 5.64549C5.58464 5.89719 4.95007 6.49217 4.95007 7.71167C4.95007 8.93176 5.83693 10.1111 5.95805 10.2724C6.07858 10.4337 7.67149 13.0139 10.192 14.0124C12.2883 14.839 12.712 14.6777 13.1657 14.6269C13.6189 14.5767 14.6275 14.0325 14.839 13.4476C15.0405 12.8733 15.0405 12.3693 14.9802 12.2682C14.9199 12.1678 14.748 12.1069 14.5064 11.9758C14.2541 11.8552 13.0446 11.2502 12.813 11.1693C12.5808 11.0889 12.4195 11.0487 12.2582 11.2904C12.0969 11.5427 11.623 12.0969 11.4724 12.2582C11.3306 12.4195 11.1799 12.4396 10.9377 12.3185C10.686 12.1979 9.88951 11.9356 8.9418 11.0889C8.20561 10.4331 7.71167 9.61713 7.56041 9.37548C7.41979 9.12319 7.54032 8.99202 7.67149 8.8709C7.78257 8.76041 7.92378 8.57902 8.0449 8.43781C8.16544 8.29601 8.20561 8.18552 8.2966 8.02422C8.37696 7.86292 8.33678 7.71167 8.27651 7.59114C8.21566 7.48006 7.74239 6.25997 7.52024 5.76603V5.76662Z" fill="#4B5563"/>
</svg>
